<svg height="200px" width="200px" version="1.1" id="Capa_1" xmlns="http://www.w3.org/2000/svg"
  xmlns:xlink="http://www.w3.org/1999/xlink" viewBox="0 0 58.252 58.252" xml:space="preserve"
  fill="#443c30" stroke="#443c30"><g id="SVGRepo_bgCarrier" stroke-width="0"></g><g id="SVGRepo_tracerCarrier" stroke-linecap="round" stroke-linejoin="round"></g><g id="SVGRepo_iconCarrier"> <g> <path style="fill:#ffdb6f;" d="M46.606,16.575c-1.472,0-2.625,0.882-2.62,1.978c-0.019,0.038-0.154,0.147-0.397,0.147 c-0.079-0.009-0.391-0.334-0.391-0.975v-1.348c2.213-1.662,3.653-4.3,3.653-7.274C46.851,4.085,42.768,0,37.748,0 c-5.018,0-9.101,4.086-9.101,9.103c0,1.186,0.234,2.316,0.649,3.354h-2.715c0.415-1.039,0.649-2.169,0.649-3.354 C27.23,4.085,23.147,0,18.128,0C13.11,0,9.026,4.086,9.026,9.103c0,2.972,1.438,5.606,3.646,7.268v11.491 c0,1.83,1.487,3.318,3.316,3.318h8.111v3.659c0,0.869,0.706,1.575,1.574,1.575h4.051c0.868,0,1.575-0.706,1.575-1.575V31.18h8.508 c1.829,0,3.317-1.336,3.317-2.979c0-0.674,0.296-1.056,0.4-1.088c0.251,0.001,0.403,0.144,0.403,0.206 c0,1.174,1.164,2.093,2.651,2.093c1.485-0.001,2.648-1.459,2.648-3.318v-6.202C49.231,18.032,48.079,16.575,46.606,16.575z M37.749,2.063c3.883,0,7.042,3.157,7.042,7.041s-3.159,7.041-7.042,7.041c-3.881,0-7.04-3.157-7.04-7.041 S33.868,2.063,37.749,2.063z M11.09,9.104c0-3.884,3.158-7.041,7.041-7.041c3.882,0,7.042,3.157,7.042,7.041 s-3.16,7.041-7.042,7.041C14.248,16.145,11.09,12.987,11.09,9.104z M46.582,27.523c-0.473,0-0.735-0.193-0.761-0.203 c0-1.153-1.026-2.094-2.291-2.095c-1.285,0-2.291,1.308-2.291,2.977c0,0.59-0.653,1.09-1.428,1.09H29.414v5.234h-3.422v-5.234h-10 c-0.786,0-1.427-0.641-1.427-1.429V17.477c1.096,0.468,2.301,0.728,3.565,0.728c3.065,0,5.776-1.526,7.427-3.855h4.767 c1.649,2.329,4.359,3.855,7.425,3.855c1.262,0,2.465-0.258,3.56-0.725v0.246c0,1.607,1.001,2.865,2.28,2.865 c1.226,0,2.229-0.855,2.28-1.923c0.086-0.073,0.338-0.203,0.737-0.203c0.293,0,0.735,0.569,0.735,1.427v6.202h0.001 C47.342,26.965,46.891,27.522,46.582,27.523z M34.471,43.222c0.655-0.191,1.138-0.79,1.138-1.506v-2.835 c0-0.868-0.706-1.574-1.574-1.574H20.91c-0.869,0-1.574,0.706-1.574,1.574v2.835c0,0.868,0.705,1.575,1.574,1.575h0.525 l-5.756,10.212c-0.639,1.132-0.079,2.659,1.244,3.405c0.486,0.274,1.01,0.406,1.509,0.406c0.858,0,1.644-0.389,2.049-1.104 l4.782-8.484v8.171c0,1.299,1.236,2.355,2.756,2.355c1.52,0,2.757-1.057,2.757-2.355V47.89l4.689,8.321 c0.404,0.715,1.191,1.104,2.05,1.104c0.499,0,1.021-0.132,1.508-0.406c1.324-0.746,1.883-2.273,1.245-3.405L34.471,43.222z M38.094,55.263c-0.455,0.255-0.892,0.18-0.982,0.02l-6.336-11.241l-0.416-0.743h-1.475v12.599c0,0.186-0.345,0.466-0.866,0.466 s-0.865-0.28-0.865-0.466v-12.6h-1.548l-0.343,0.579l-6.429,11.405c-0.091,0.161-0.528,0.235-0.982-0.02 c-0.454-0.256-0.617-0.67-0.526-0.832l6.269-11.14V41.4h-2.368v-2.204H33.72V41.4h-1.36v1.89l6.261,11.14 C38.712,54.593,38.549,55.007,38.094,55.263z M23.706,9.104c0-2.94-2.393-5.333-5.333-5.333S13.04,6.164,13.04,9.104 s2.393,5.333,5.333,5.333S23.706,12.044,23.706,9.104z M14.04,9.104c0-2.389,1.944-4.333,4.333-4.333s4.333,1.944,4.333,4.333 s-1.944,4.333-4.333,4.333S14.04,11.493,14.04,9.104z M37.641,14.437c2.94,0,5.333-2.393,5.333-5.333s-2.393-5.333-5.333-5.333 s-5.333,2.393-5.333,5.333S34.7,14.437,37.641,14.437z M37.641,4.771c2.39,0,4.333,1.944,4.333,4.333s-1.943,4.333-4.333,4.333 s-4.333-1.944-4.333-4.333S35.251,4.771,37.641,4.771z"></path> </g> </g></svg>
